<svg id="mermaid-1773341181343" width="100%" xmlns="http://www.w3.org/2000/svg" xmlns:xlink="http://www.w3.org/1999/xlink" class="flowchart" style="max-width: 300px;" viewBox="-12 -12 300 1823" role="graphics-document document" aria-roledescription="flowchart-v2" aria-describedby="chart-desc-mermaid-1773341181343" aria-labelledby="chart-title-mermaid-1773341181343" height="auto"><rect width="100%" height="100%" fill="white"/><title id="chart-title-mermaid-1773341181343">Deploy Pipeline</title><desc id="chart-desc-mermaid-1773341181343">Manual deploy pipeline that builds, tests, publishes, and promotes packages to npm</desc><style>#mermaid-1773341181343{font-family:"trebuchet ms",verdana,arial,sans-serif;font-size:16px;fill:#0D47A1;}@keyframes edge-animation-frame{from{stroke-dashoffset:0;}}@keyframes dash{to{stroke-dashoffset:0;}}#mermaid-1773341181343 .edge-animation-slow{stroke-dasharray:9,5!important;stroke-dashoffset:900;animation:dash 50s linear infinite;stroke-linecap:round;}#mermaid-1773341181343 .edge-animation-fast{stroke-dasharray:9,5!important;stroke-dashoffset:900;animation:dash 20s linear infinite;stroke-linecap:round;}#mermaid-1773341181343 .error-icon{fill:hsl(25.3846153846, 86.6666666667%, 99.1176470588%);}#mermaid-1773341181343 .error-text{fill:rgb(0.3, 2.5500000001, 4.2000000001);stroke:rgb(0.3, 2.5500000001, 4.2000000001);}#mermaid-1773341181343 .edge-thickness-normal{stroke-width:1px;}#mermaid-1773341181343 .edge-thickness-thick{stroke-width:3.5px;}#mermaid-1773341181343 .edge-pattern-solid{stroke-dasharray:0;}#mermaid-1773341181343 .edge-thickness-invisible{stroke-width:0;fill:none;}#mermaid-1773341181343 .edge-pattern-dashed{stroke-dasharray:3;}#mermaid-1773341181343 .edge-pattern-dotted{stroke-dasharray:2;}#mermaid-1773341181343 .marker{fill:#37474F;stroke:#37474F;}#mermaid-1773341181343 .marker.cross{stroke:#37474F;}#mermaid-1773341181343 svg{font-family:"trebuchet ms",verdana,arial,sans-serif;font-size:16px;}#mermaid-1773341181343 p{margin:0;}#mermaid-1773341181343 .label{font-family:"trebuchet ms",verdana,arial,sans-serif;color:#0D47A1;}#mermaid-1773341181343 .cluster-label text{fill:rgb(0.3, 2.5500000001, 4.2000000001);}#mermaid-1773341181343 .cluster-label span{color:rgb(0.3, 2.5500000001, 4.2000000001);}#mermaid-1773341181343 .cluster-label span p{background-color:transparent;}#mermaid-1773341181343 .label text,#mermaid-1773341181343 span{fill:#0D47A1;color:#0D47A1;}#mermaid-1773341181343 .node rect,#mermaid-1773341181343 .node circle,#mermaid-1773341181343 .node ellipse,#mermaid-1773341181343 .node polygon,#mermaid-1773341181343 .node path{fill:#E3F2FD;stroke:#1565C0;stroke-width:1px;}#mermaid-1773341181343 .rough-node .label text,#mermaid-1773341181343 .node .label text,#mermaid-1773341181343 .image-shape .label,#mermaid-1773341181343 .icon-shape .label{text-anchor:middle;}#mermaid-1773341181343 .node .katex path{fill:#000;stroke:#000;stroke-width:1px;}#mermaid-1773341181343 .rough-node .label,#mermaid-1773341181343 .node .label,#mermaid-1773341181343 .image-shape .label,#mermaid-1773341181343 .icon-shape .label{text-align:center;}#mermaid-1773341181343 .node.clickable{cursor:pointer;}#mermaid-1773341181343 .root .anchor path{fill:#37474F!important;stroke-width:0;stroke:#37474F;}#mermaid-1773341181343 .arrowheadPath{fill:#000000;}#mermaid-1773341181343 .edgePath .path{stroke:#37474F;stroke-width:2.0px;}#mermaid-1773341181343 .flowchart-link{stroke:#37474F;fill:none;}#mermaid-1773341181343 .edgeLabel{background-color:hsl(85.3846153846, 86.6666666667%, 94.1176470588%);text-align:center;}#mermaid-1773341181343 .edgeLabel p{background-color:hsl(85.3846153846, 86.6666666667%, 94.1176470588%);}#mermaid-1773341181343 .edgeLabel rect{opacity:0.5;background-color:hsl(85.3846153846, 86.6666666667%, 94.1176470588%);fill:hsl(85.3846153846, 86.6666666667%, 94.1176470588%);}#mermaid-1773341181343 .labelBkg{background-color:rgba(242, 253, 226.9999999999, 0.5);}#mermaid-1773341181343 .cluster rect{fill:hsl(25.3846153846, 86.6666666667%, 99.1176470588%);stroke:hsl(25.3846153846, 46.6666666667%, 89.1176470588%);stroke-width:1px;}#mermaid-1773341181343 .cluster text{fill:rgb(0.3, 2.5500000001, 4.2000000001);}#mermaid-1773341181343 .cluster span{color:rgb(0.3, 2.5500000001, 4.2000000001);}#mermaid-1773341181343 div.mermaidTooltip{position:absolute;text-align:center;max-width:200px;padding:2px;font-family:"trebuchet ms",verdana,arial,sans-serif;font-size:12px;background:hsl(25.3846153846, 86.6666666667%, 99.1176470588%);border:1px solid hsl(25.3846153846, 46.6666666667%, 89.1176470588%);border-radius:2px;pointer-events:none;z-index:100;}#mermaid-1773341181343 .flowchartTitleText{text-anchor:middle;font-size:18px;fill:#0D47A1;}#mermaid-1773341181343 rect.text{fill:none;stroke-width:0;}#mermaid-1773341181343 .icon-shape,#mermaid-1773341181343 .image-shape{background-color:hsl(85.3846153846, 86.6666666667%, 94.1176470588%);text-align:center;}#mermaid-1773341181343 .icon-shape p,#mermaid-1773341181343 .image-shape p{background-color:hsl(85.3846153846, 86.6666666667%, 94.1176470588%);padding:2px;}#mermaid-1773341181343 .icon-shape .label rect,#mermaid-1773341181343 .image-shape .label rect{opacity:0.5;background-color:hsl(85.3846153846, 86.6666666667%, 94.1176470588%);fill:hsl(85.3846153846, 86.6666666667%, 94.1176470588%);}#mermaid-1773341181343 .label-icon{display:inline-block;height:1em;overflow:visible;vertical-align:-0.125em;}#mermaid-1773341181343 .node .label-icon path{fill:currentColor;stroke:revert;stroke-width:revert;}#mermaid-1773341181343 :root{--mermaid-font-family:"trebuchet ms",verdana,arial,sans-serif;}#mermaid-1773341181343 .trigger&gt;*{fill:#F3E5F5!important;stroke:#7B1FA2!important;stroke-width:2px!important;color:#4A148C!important;}#mermaid-1773341181343 .trigger span{fill:#F3E5F5!important;stroke:#7B1FA2!important;stroke-width:2px!important;color:#4A148C!important;}#mermaid-1773341181343 .trigger tspan{fill:#4A148C!important;}#mermaid-1773341181343 .process&gt;*{fill:#E1F5FE!important;stroke:#0277BD!important;stroke-width:2px!important;color:#01579B!important;}#mermaid-1773341181343 .process span{fill:#E1F5FE!important;stroke:#0277BD!important;stroke-width:2px!important;color:#01579B!important;}#mermaid-1773341181343 .process tspan{fill:#01579B!important;}#mermaid-1773341181343 .build&gt;*{fill:#E3F2FD!important;stroke:#1565C0!important;stroke-width:2px!important;color:#0D47A1!important;}#mermaid-1773341181343 .build span{fill:#E3F2FD!important;stroke:#1565C0!important;stroke-width:2px!important;color:#0D47A1!important;}#mermaid-1773341181343 .build tspan{fill:#0D47A1!important;}#mermaid-1773341181343 .test&gt;*{fill:#E8F5E9!important;stroke:#2E7D32!important;stroke-width:2px!important;color:#1B5E20!important;}#mermaid-1773341181343 .test span{fill:#E8F5E9!important;stroke:#2E7D32!important;stroke-width:2px!important;color:#1B5E20!important;}#mermaid-1773341181343 .test tspan{fill:#1B5E20!important;}#mermaid-1773341181343 .gate&gt;*{fill:#FFF8E1!important;stroke:#F57F17!important;stroke-width:2px!important;color:#E65100!important;}#mermaid-1773341181343 .gate span{fill:#FFF8E1!important;stroke:#F57F17!important;stroke-width:2px!important;color:#E65100!important;}#mermaid-1773341181343 .gate tspan{fill:#E65100!important;}#mermaid-1773341181343 .publish&gt;*{fill:#E0F2F1!important;stroke:#00695C!important;stroke-width:2px!important;color:#004D40!important;}#mermaid-1773341181343 .publish span{fill:#E0F2F1!important;stroke:#00695C!important;stroke-width:2px!important;color:#004D40!important;}#mermaid-1773341181343 .publish tspan{fill:#004D40!important;}#mermaid-1773341181343 .ok&gt;*{fill:#C8E6C9!important;stroke:#2E7D32!important;stroke-width:2px!important;color:#1B5E20!important;}#mermaid-1773341181343 .ok span{fill:#C8E6C9!important;stroke:#2E7D32!important;stroke-width:2px!important;color:#1B5E20!important;}#mermaid-1773341181343 .ok tspan{fill:#1B5E20!important;}</style><g><marker id="mermaid-1773341181343_flowchart-v2-pointEnd" class="marker flowchart-v2" viewBox="0 0 10 10" refX="5" refY="5" markerUnits="userSpaceOnUse" markerWidth="8" markerHeight="8" orient="auto"><path d="M 0 0 L 10 5 L 0 10 z" class="arrowMarkerPath" style="stroke-width: 1; stroke-dasharray: 1, 0;"></path></marker><marker id="mermaid-1773341181343_flowchart-v2-pointStart" class="marker flowchart-v2" viewBox="0 0 10 10" refX="4.5" refY="5" markerUnits="userSpaceOnUse" markerWidth="8" markerHeight="8" orient="auto"><path d="M 0 5 L 10 10 L 10 0 z" class="arrowMarkerPath" style="stroke-width: 1; stroke-dasharray: 1, 0;"></path></marker><marker id="mermaid-1773341181343_flowchart-v2-circleEnd" class="marker flowchart-v2" viewBox="0 0 10 10" refX="11" refY="5" markerUnits="userSpaceOnUse" markerWidth="11" markerHeight="11" orient="auto"><circle cx="5" cy="5" r="5" class="arrowMarkerPath" style="stroke-width: 1; stroke-dasharray: 1, 0;"></circle></marker><marker id="mermaid-1773341181343_flowchart-v2-circleStart" class="marker flowchart-v2" viewBox="0 0 10 10" refX="-1" refY="5" markerUnits="userSpaceOnUse" markerWidth="11" markerHeight="11" orient="auto"><circle cx="5" cy="5" r="5" class="arrowMarkerPath" style="stroke-width: 1; stroke-dasharray: 1, 0;"></circle></marker><marker id="mermaid-1773341181343_flowchart-v2-crossEnd" class="marker cross flowchart-v2" viewBox="0 0 11 11" refX="12" refY="5.2" markerUnits="userSpaceOnUse" markerWidth="11" markerHeight="11" orient="auto"><path d="M 1,1 l 9,9 M 10,1 l -9,9" class="arrowMarkerPath" style="stroke-width: 2; stroke-dasharray: 1, 0;"></path></marker><marker id="mermaid-1773341181343_flowchart-v2-crossStart" class="marker cross flowchart-v2" viewBox="0 0 11 11" refX="-1" refY="5.2" markerUnits="userSpaceOnUse" markerWidth="11" markerHeight="11" orient="auto"><path d="M 1,1 l 9,9 M 10,1 l -9,9" class="arrowMarkerPath" style="stroke-width: 2; stroke-dasharray: 1, 0;"></path></marker><g class="root"><g class="clusters"></g><g class="edgePaths"><path d="M138.5,47.5L138.417,51.583C138.333,55.667,138.167,63.833,138.083,71.417C138,79,138,86,138,89.5L138,93" id="L_deploy_detect_0" class="edge-thickness-normal edge-pattern-solid edge-thickness-normal edge-pattern-solid flowchart-link" style=";" data-edge="true" data-et="edge" data-id="L_deploy_detect_0" data-points="W3sieCI6MTM4LjUsInkiOjQ3LjUwMDAwMDAwMDAwMDAxfSx7IngiOjEzOCwieSI6NzJ9LHsieCI6MTM4LCJ5Ijo5N31d" marker-end="url(#mermaid-1773341181343_flowchart-v2-pointEnd)"></path><path d="M138,199L138,203.167C138,207.333,138,215.667,138,223.333C138,231,138,238,138,241.5L138,245" id="L_detect_bump_0" class="edge-thickness-normal edge-pattern-solid edge-thickness-normal edge-pattern-solid flowchart-link" style=";" data-edge="true" data-et="edge" data-id="L_detect_bump_0" data-points="W3sieCI6MTM4LCJ5IjoxOTl9LHsieCI6MTM4LCJ5IjoyMjR9LHsieCI6MTM4LCJ5IjoyNDl9XQ==" marker-end="url(#mermaid-1773341181343_flowchart-v2-pointEnd)"></path><path d="M138,327L138,331.167C138,335.333,138,343.667,138,351.333C138,359,138,366,138,369.5L138,373" id="L_bump_copy_0" class="edge-thickness-normal edge-pattern-solid edge-thickness-normal edge-pattern-solid flowchart-link" style=";" data-edge="true" data-et="edge" data-id="L_bump_copy_0" data-points="W3sieCI6MTM4LCJ5IjozMjd9LHsieCI6MTM4LCJ5IjozNTJ9LHsieCI6MTM4LCJ5IjozNzd9XQ==" marker-end="url(#mermaid-1773341181343_flowchart-v2-pointEnd)"></path><path d="M138,455L138,459.167C138,463.333,138,471.667,138,479.333C138,487,138,494,138,497.5L138,501" id="L_copy_tsc_0" class="edge-thickness-normal edge-pattern-solid edge-thickness-normal edge-pattern-solid flowchart-link" style=";" data-edge="true" data-et="edge" data-id="L_copy_tsc_0" data-points="W3sieCI6MTM4LCJ5Ijo0NTV9LHsieCI6MTM4LCJ5Ijo0ODB9LHsieCI6MTM4LCJ5Ijo1MDV9XQ==" marker-end="url(#mermaid-1773341181343_flowchart-v2-pointEnd)"></path><path d="M138,583L138,587.167C138,591.333,138,599.667,138,607.333C138,615,138,622,138,625.5L138,629" id="L_tsc_pretest_0" class="edge-thickness-normal edge-pattern-solid edge-thickness-normal edge-pattern-solid flowchart-link" style=";" data-edge="true" data-et="edge" data-id="L_tsc_pretest_0" data-points="W3sieCI6MTM4LCJ5Ijo1ODN9LHsieCI6MTM4LCJ5Ijo2MDh9LHsieCI6MTM4LCJ5Ijo2MzN9XQ==" marker-end="url(#mermaid-1773341181343_flowchart-v2-pointEnd)"></path><path d="M138,735L138,739.167C138,743.333,138,751.667,138,759.333C138,767,138,774,138,777.5L138,781" id="L_pretest_gate1_0" class="edge-thickness-normal edge-pattern-solid edge-thickness-normal edge-pattern-solid flowchart-link" style=";" data-edge="true" data-et="edge" data-id="L_pretest_gate1_0" data-points="W3sieCI6MTM4LCJ5Ijo3MzV9LHsieCI6MTM4LCJ5Ijo3NjB9LHsieCI6MTM4LCJ5Ijo3ODV9XQ==" marker-end="url(#mermaid-1773341181343_flowchart-v2-pointEnd)"></path><path d="M138,926.156L138,932.323C138,938.49,138,950.823,138,962.49C138,974.156,138,985.156,138,990.656L138,996.156" id="L_gate1_npm_0" class="edge-thickness-normal edge-pattern-solid edge-thickness-normal edge-pattern-solid flowchart-link" style=";" data-edge="true" data-et="edge" data-id="L_gate1_npm_0" data-points="W3sieCI6MTM4LCJ5Ijo5MjYuMTU2MjV9LHsieCI6MTM4LCJ5Ijo5NjMuMTU2MjV9LHsieCI6MTM4LCJ5IjoxMDAwLjE1NjI1fV0=" marker-end="url(#mermaid-1773341181343_flowchart-v2-pointEnd)"></path><path d="M138,1102.156L138,1106.323C138,1110.49,138,1118.823,138,1126.49C138,1134.156,138,1141.156,138,1144.656L138,1148.156" id="L_npm_cdn_0" class="edge-thickness-normal edge-pattern-solid edge-thickness-normal edge-pattern-solid flowchart-link" style=";" data-edge="true" data-et="edge" data-id="L_npm_cdn_0" data-points="W3sieCI6MTM4LCJ5IjoxMTAyLjE1NjI1fSx7IngiOjEzOCwieSI6MTEyNy4xNTYyNX0seyJ4IjoxMzgsInkiOjExNTIuMTU2MjV9XQ==" marker-end="url(#mermaid-1773341181343_flowchart-v2-pointEnd)"></path><path d="M138,1230.156L138,1234.323C138,1238.49,138,1246.823,138,1254.49C138,1262.156,138,1269.156,138,1272.656L138,1276.156" id="L_cdn_accept_0" class="edge-thickness-normal edge-pattern-solid edge-thickness-normal edge-pattern-solid flowchart-link" style=";" data-edge="true" data-et="edge" data-id="L_cdn_accept_0" data-points="W3sieCI6MTM4LCJ5IjoxMjMwLjE1NjI1fSx7IngiOjEzOCwieSI6MTI1NS4xNTYyNX0seyJ4IjoxMzgsInkiOjEyODAuMTU2MjV9XQ==" marker-end="url(#mermaid-1773341181343_flowchart-v2-pointEnd)"></path><path d="M138,1358.156L138,1362.323C138,1366.49,138,1374.823,138,1382.49C138,1390.156,138,1397.156,138,1400.656L138,1404.156" id="L_accept_gate2_0" class="edge-thickness-normal edge-pattern-solid edge-thickness-normal edge-pattern-solid flowchart-link" style=";" data-edge="true" data-et="edge" data-id="L_accept_gate2_0" data-points="W3sieCI6MTM4LCJ5IjoxMzU4LjE1NjI1fSx7IngiOjEzOCwieSI6MTM4My4xNTYyNX0seyJ4IjoxMzgsInkiOjE0MDguMTU2MjV9XQ==" marker-end="url(#mermaid-1773341181343_flowchart-v2-pointEnd)"></path><path d="M138,1534.188L138,1540.354C138,1546.521,138,1558.854,138,1570.521C138,1582.188,138,1593.188,138,1598.688L138,1604.188" id="L_gate2_promote_0" class="edge-thickness-normal edge-pattern-solid edge-thickness-normal edge-pattern-solid flowchart-link" style=";" data-edge="true" data-et="edge" data-id="L_gate2_promote_0" data-points="W3sieCI6MTM4LCJ5IjoxNTM0LjE4NzV9LHsieCI6MTM4LCJ5IjoxNTcxLjE4NzV9LHsieCI6MTM4LCJ5IjoxNjA4LjE4NzV9XQ==" marker-end="url(#mermaid-1773341181343_flowchart-v2-pointEnd)"></path><path d="M138,1686.188L138,1690.354C138,1694.521,138,1702.854,138,1710.521C138,1718.188,138,1725.188,138,1728.688L138,1732.188" id="L_promote_smoke_0" class="edge-thickness-normal edge-pattern-solid edge-thickness-normal edge-pattern-solid flowchart-link" style=";" data-edge="true" data-et="edge" data-id="L_promote_smoke_0" data-points="W3sieCI6MTM4LCJ5IjoxNjg2LjE4NzV9LHsieCI6MTM4LCJ5IjoxNzExLjE4NzV9LHsieCI6MTM4LCJ5IjoxNzM2LjE4NzV9XQ==" marker-end="url(#mermaid-1773341181343_flowchart-v2-pointEnd)"></path></g><g class="edgeLabels"><g class="edgeLabel"><g class="label" data-id="L_deploy_detect_0" transform="translate(0, 0)"><foreignObject width="0" height="0"><div xmlns="http://www.w3.org/1999/xhtml" class="labelBkg" style="display: table-cell; white-space: nowrap; line-height: 1.5; max-width: 200px; text-align: center;"><span class="edgeLabel"></span></div></foreignObject></g></g><g class="edgeLabel"><g class="label" data-id="L_detect_bump_0" transform="translate(0, 0)"><foreignObject width="0" height="0"><div xmlns="http://www.w3.org/1999/xhtml" class="labelBkg" style="display: table-cell; white-space: nowrap; line-height: 1.5; max-width: 200px; text-align: center;"><span class="edgeLabel"></span></div></foreignObject></g></g><g class="edgeLabel"><g class="label" data-id="L_bump_copy_0" transform="translate(0, 0)"><foreignObject width="0" height="0"><div xmlns="http://www.w3.org/1999/xhtml" class="labelBkg" style="display: table-cell; white-space: nowrap; line-height: 1.5; max-width: 200px; text-align: center;"><span class="edgeLabel"></span></div></foreignObject></g></g><g class="edgeLabel"><g class="label" data-id="L_copy_tsc_0" transform="translate(0, 0)"><foreignObject width="0" height="0"><div xmlns="http://www.w3.org/1999/xhtml" class="labelBkg" style="display: table-cell; white-space: nowrap; line-height: 1.5; max-width: 200px; text-align: center;"><span class="edgeLabel"></span></div></foreignObject></g></g><g class="edgeLabel"><g class="label" data-id="L_tsc_pretest_0" transform="translate(0, 0)"><foreignObject width="0" height="0"><div xmlns="http://www.w3.org/1999/xhtml" class="labelBkg" style="display: table-cell; white-space: nowrap; line-height: 1.5; max-width: 200px; text-align: center;"><span class="edgeLabel"></span></div></foreignObject></g></g><g class="edgeLabel"><g class="label" data-id="L_pretest_gate1_0" transform="translate(0, 0)"><foreignObject width="0" height="0"><div xmlns="http://www.w3.org/1999/xhtml" class="labelBkg" style="display: table-cell; white-space: nowrap; line-height: 1.5; max-width: 200px; text-align: center;"><span class="edgeLabel"></span></div></foreignObject></g></g><g class="edgeLabel" transform="translate(138, 963.15625)"><g class="label" data-id="L_gate1_npm_0" transform="translate(-17.7890625, -12)"><foreignObject width="35.578125" height="24"><div xmlns="http://www.w3.org/1999/xhtml" class="labelBkg" style="display: table-cell; white-space: nowrap; line-height: 1.5; max-width: 200px; text-align: center;"><span class="edgeLabel"><p>Pass</p></span></div></foreignObject></g></g><g class="edgeLabel"><g class="label" data-id="L_npm_cdn_0" transform="translate(0, 0)"><foreignObject width="0" height="0"><div xmlns="http://www.w3.org/1999/xhtml" class="labelBkg" style="display: table-cell; white-space: nowrap; line-height: 1.5; max-width: 200px; text-align: center;"><span class="edgeLabel"></span></div></foreignObject></g></g><g class="edgeLabel"><g class="label" data-id="L_cdn_accept_0" transform="translate(0, 0)"><foreignObject width="0" height="0"><div xmlns="http://www.w3.org/1999/xhtml" class="labelBkg" style="display: table-cell; white-space: nowrap; line-height: 1.5; max-width: 200px; text-align: center;"><span class="edgeLabel"></span></div></foreignObject></g></g><g class="edgeLabel"><g class="label" data-id="L_accept_gate2_0" transform="translate(0, 0)"><foreignObject width="0" height="0"><div xmlns="http://www.w3.org/1999/xhtml" class="labelBkg" style="display: table-cell; white-space: nowrap; line-height: 1.5; max-width: 200px; text-align: center;"><span class="edgeLabel"></span></div></foreignObject></g></g><g class="edgeLabel" transform="translate(138, 1571.1875)"><g class="label" data-id="L_gate2_promote_0" transform="translate(-17.7890625, -12)"><foreignObject width="35.578125" height="24"><div xmlns="http://www.w3.org/1999/xhtml" class="labelBkg" style="display: table-cell; white-space: nowrap; line-height: 1.5; max-width: 200px; text-align: center;"><span class="edgeLabel"><p>Pass</p></span></div></foreignObject></g></g><g class="edgeLabel"><g class="label" data-id="L_promote_smoke_0" transform="translate(0, 0)"><foreignObject width="0" height="0"><div xmlns="http://www.w3.org/1999/xhtml" class="labelBkg" style="display: table-cell; white-space: nowrap; line-height: 1.5; max-width: 200px; text-align: center;"><span class="edgeLabel"></span></div></foreignObject></g></g></g><g class="nodes"><g class="node default trigger" id="flowchart-deploy-0" transform="translate(138, 27.5)"><g class="basic label-container outer-path"><path d="M-48.0234375 -19.5 C-23.10540593140312 -19.5, 1.8126256371937615 -19.5, 48.0234375 -19.5 C48.0234375 -19.5, 48.0234375 -19.5, 48.0234375 -19.5 C48.44697552843293 -19.486417959794917, 48.87051355686585 -19.472835919589834, 49.2728067896239 -19.45993515863156 C49.55181099019131 -19.433019958954464, 49.830815190758734 -19.40610475927737, 50.517042152847864 -19.3399052695533 C50.86885341697153 -19.283027152706886, 51.2206646810952 -19.226149035860473, 51.75103075967676 -19.140403561325776 C52.075368582854736 -19.066375569687498, 52.399706406032706 -18.992347578049216, 52.96970188623539 -18.862249829261074 C53.21531003331332 -18.78935462043182, 53.460918180391246 -18.71645941160256, 54.168047751460605 -18.50658706670804 C54.50003629939279 -18.3844122122005, 54.83202484732497 -18.26223735769296, 55.3411440951478 -18.074876768247425 C55.665691053823025 -17.93120945698537, 55.990238012498246 -17.787542145723318, 56.48417041279238 -17.568892924097174 C56.83863348247369 -17.383969767688868, 57.193096552155 -17.19904661128056, 57.59242976407678 -16.990714730406097 C57.88498986869153 -16.81336307571463, 58.17754997330626 -16.636011421023163, 58.6613680736057 -16.342718045390892 C58.86707152305712 -16.199228223812387, 59.07277497250855 -16.05573840223388, 59.68659284457871 -15.627565626425154 C59.94834567599029 -15.418824708909797, 60.21009850740187 -15.21008379139444, 60.663891208501866 -14.848196188198123 C60.868630517627714 -14.6622573647553, 61.07336982675356 -14.476318541312477, 61.58924723676799 -14.007812326905688 C61.783511314060334 -13.80721871772398, 61.97777539135267 -13.606625108542271, 62.45885844296865 -13.10986736009568 C62.73659301601553 -12.78362452704991, 63.01432758906242 -12.457381694004138, 63.26915140812658 -12.158051136245305 C63.51378901355432 -11.830259031916471, 63.758426618982064 -11.502466927587637, 64.01679646464063 -11.156274872382312 C64.18768831388087 -10.893739101062463, 64.3585801631211 -10.631203329742617, 64.69872137860425 -10.108655082055241 C64.87140376919415 -9.80204001157472, 65.04408615978404 -9.4954249410942, 65.3121239742735 -9.019496659696287 C65.48305430662427 -8.664556167246689, 65.65398463897505 -8.309615674797092, 65.85448364880834 -7.893275190886684 C65.95650669848715 -7.641276285698541, 66.05852974816597 -7.389277380510396, 66.32357172997033 -6.734618561215508 C66.40239715593049 -6.497208937349574, 66.48122258189065 -6.259799313483639, 66.71746063421489 -5.548287939305138 C66.7942104334885 -5.255607691101411, 66.87096023276212 -4.9629274428976835, 67.03453178754556 -4.339158212148133 C67.0848092425854 -4.080994106662473, 67.13508669762523 -3.8228300011768126, 67.27348227658177 -3.1121979531509023 C67.32570907192864 -2.707137241787843, 67.37793586727551 -2.302076530424783, 67.43333020250937 -1.872449005199798 C67.45448270505034 -1.5429817041314413, 67.47563520759131 -1.2135144030630847, 67.51341871591342 -0.6250057626472757 C67.51341871591342 -0.21578719223805798, 67.51341871591342 0.19343137817115974, 67.51341871591342 0.625005762647271 C67.48723446333717 1.032846632070511, 67.46105021076093 1.440687501493751, 67.43333020250937 1.8724490051997846 C67.3885930553106 2.2194214845245277, 67.34385590811182 2.5663939638492703, 67.27348227658177 3.1121979531508885 C67.21738206425957 3.4002606866413623, 67.16128185193736 3.688323420131836, 67.03453178754556 4.339158212148129 C66.9707204809304 4.582498380266976, 66.90690917431523 4.825838548385825, 66.71746063421489 5.548287939305125 C66.57371694718314 5.981221022198399, 66.42997326015141 6.414154105091672, 66.32357172997033 6.734618561215495 C66.17648897150252 7.0979158182826625, 66.02940621303472 7.46121307534983, 65.85448364880834 7.893275190886679 C65.68027690182983 8.255019228414831, 65.50607015485132 8.616763265942982, 65.3121239742735 9.019496659696284 C65.14387452010781 9.318240602672148, 64.97562506594211 9.61698454564801, 64.69872137860425 10.108655082055236 C64.5589230958223 10.323422785503487, 64.41912481304036 10.538190488951738, 64.01679646464065 11.156274872382301 C63.86482990431503 11.359896218780172, 63.71286334398942 11.563517565178042, 63.26915140812658 12.158051136245302 C63.04177390903665 12.425141684822558, 62.81439640994672 12.692232233399814, 62.45885844296866 13.10986736009567 C62.18232699572178 13.395408783032122, 61.9057955484749 13.680950205968575, 61.58924723676799 14.007812326905684 C61.27844502488889 14.290074672358386, 60.96764281300978 14.572337017811089, 60.66389120850189 14.848196188198111 C60.36294196107053 15.0881952044288, 60.061992713639185 15.328194220659489, 59.68659284457871 15.627565626425152 C59.44137588021222 15.798618365495921, 59.19615891584572 15.969671104566688, 58.66136807360571 16.34271804539089 C58.4344987249308 16.4802475777899, 58.20762937625588 16.61777711018891, 57.59242976407678 16.990714730406093 C57.16325450195278 17.214615189756312, 56.73407923982878 17.438515649106527, 56.48417041279239 17.56889292409717 C56.15896234572256 17.71285288843443, 55.833754278652734 17.85681285277169, 55.341144095147804 18.07487676824742 C54.88039657253817 18.244436115671178, 54.41964904992852 18.413995463094935, 54.16804775146062 18.506587066708033 C53.89585892763769 18.587371280870386, 53.62367010381476 18.668155495032742, 52.96970188623541 18.86224982926107 C52.67659509180648 18.92914954238889, 52.38348829737755 18.996049255516706, 51.751030759676766 19.140403561325773 C51.450042688098634 19.189064978541168, 51.149054616520495 19.237726395756567, 50.51704215284788 19.3399052695533 C50.026323023674706 19.387244353768537, 49.535603894501534 19.434583437983772, 49.2728067896239 19.45993515863156 C48.913475505762264 19.471458213509088, 48.55414422190063 19.482981268386617, 48.02343750000001 19.5 C48.02343750000001 19.5, 48.0234375 19.5, 48.0234375 19.5 C15.175735593314954 19.5, -17.671966313370092 19.5, -48.02343749999999 19.5 C-48.433221182981114 19.486859034882347, -48.84300486596224 19.473718069764693, -49.27280678962389 19.45993515863156 C-49.64250204064475 19.424271102389167, -50.01219729166561 19.388607046146774, -50.51704215284787 19.3399052695533 C-50.967174549712716 19.267131354457064, -51.417306946577554 19.19435743936083, -51.75103075967676 19.140403561325773 C-52.16317476604042 19.046334381364254, -52.57531877240408 18.952265201402735, -52.969701886235384 18.862249829261074 C-53.234434207909075 18.783678665796636, -53.49916652958277 18.705107502332197, -54.16804775146059 18.506587066708043 C-54.48880788601963 18.388544372116137, -54.809568020578666 18.27050167752423, -55.3411440951478 18.074876768247425 C-55.69960562541482 17.916196482181704, -56.05806715568184 17.757516196115983, -56.48417041279238 17.568892924097174 C-56.913381680742354 17.34497368053061, -57.34259294869233 17.12105443696405, -57.59242976407678 16.990714730406097 C-57.95084110414287 16.773443669799214, -58.309252444208944 16.556172609192327, -58.661368073605686 16.3427180453909 C-58.958490764175274 16.135458118683527, -59.25561345474486 15.928198191976156, -59.68659284457871 15.627565626425156 C-59.902687733718565 15.455235702862632, -60.11878262285841 15.282905779300107, -60.663891208501866 14.848196188198125 C-60.951083820297164 14.587375456865749, -61.23827643209246 14.326554725533374, -61.589247236767974 14.007812326905697 C-61.83510295352552 13.75394611422379, -62.080958670283074 13.500079901541886, -62.458858442968655 13.109867360095677 C-62.731912211280424 12.78912286663711, -63.004965979592185 12.46837837317854, -63.269151408126575 12.158051136245307 C-63.56554386931371 11.760912240163249, -63.86193633050084 11.363773344081189, -64.01679646464063 11.156274872382316 C-64.22543224541111 10.83575428656727, -64.43406802618159 10.515233700752223, -64.69872137860425 10.108655082055249 C-64.89974890410875 9.7517103542777, -65.10077642961325 9.39476562650015, -65.3121239742735 9.019496659696289 C-65.5107256434217 8.607096044315103, -65.70932731256987 8.194695428933917, -65.85448364880834 7.893275190886686 C-66.02653099460437 7.468314920461354, -66.1985783404004 7.043354650036021, -66.32357172997033 6.73461856121551 C-66.45253090226711 6.346214081111359, -66.58149007456392 5.957809601007208, -66.71746063421489 5.5482879393051325 C-66.80585941719855 5.211185067513522, -66.89425820018222 4.874082195721911, -67.03453178754556 4.339158212148136 C-67.102737635641 3.9889355974891094, -67.17094348373645 3.638712982830083, -67.27348227658177 3.112197953150904 C-67.31530790699833 2.7878066230450838, -67.35713353741487 2.4634152929392634, -67.43333020250937 1.872449005199809 C-67.45540435212078 1.5286263070692163, -67.4774785017322 1.1848036089386236, -67.51341871591342 0.6250057626472781 C-67.51341871591342 0.30062703952428127, -67.51341871591342 -0.0237516835987156, -67.51341871591342 -0.6250057626472687 C-67.48832714658919 -1.0158272084224793, -67.46323557726494 -1.40664865419769, -67.43333020250937 -1.8724490051997822 C-67.38397821018899 -2.2552133119834923, -67.3346262178686 -2.637977618767202, -67.27348227658177 -3.112197953150895 C-67.17913655865594 -3.596643274725546, -67.0847908407301 -4.081088596300197, -67.03453178754556 -4.339158212148126 C-66.92140553092933 -4.770557657855563, -66.80827927431311 -5.201957103563001, -66.71746063421489 -5.548287939305123 C-66.62963191538655 -5.812814046810087, -66.54180319655822 -6.077340154315051, -66.32357172997033 -6.734618561215485 C-66.13938209440748 -7.18957052212008, -65.95519245884462 -7.644522483024676, -65.85448364880834 -7.893275190886676 C-65.68601314156105 -8.243107803877066, -65.51754263431377 -8.592940416867458, -65.3121239742735 -9.019496659696282 C-65.18384096219265 -9.2472761377094, -65.0555579501118 -9.475055615722521, -64.69872137860425 -10.108655082055243 C-64.46016096975045 -10.475147932494048, -64.22160056089663 -10.841640782932853, -64.01679646464063 -11.156274872382308 C-63.865499111144175 -11.358999542595113, -63.714201757647714 -11.561724212807915, -63.26915140812659 -12.158051136245302 C-63.03708957245462 -12.430644173118116, -62.805027736782655 -12.703237209990931, -62.45885844296866 -13.10986736009567 C-62.190511540907295 -13.386957568164426, -61.92216463884593 -13.664047776233181, -61.589247236767996 -14.007812326905677 C-61.396354047107856 -14.182992818080889, -61.20346085744772 -14.358173309256099, -60.66389120850189 -14.848196188198107 C-60.431869060942155 -15.033227676508343, -60.19984691338242 -15.218259164818576, -59.68659284457872 -15.627565626425149 C-59.31547209898448 -15.886443392993545, -58.94435135339024 -16.145321159561945, -58.661368073605715 -16.342718045390885 C-58.390489520921285 -16.50692621588726, -58.11961096823685 -16.671134386383628, -57.59242976407679 -16.99071473040609 C-57.19873917057143 -17.19610286086698, -56.80504857706607 -17.401490991327865, -56.48417041279239 -17.56889292409717 C-56.04759224527414 -17.7621531282263, -55.61101407775589 -17.955413332355423, -55.341144095147804 -18.07487676824742 C-55.10551236456867 -18.161591423256382, -54.86988063398954 -18.248306078265344, -54.16804775146062 -18.506587066708033 C-53.71791275881609 -18.640184769718136, -53.26777776617157 -18.77378247272824, -52.96970188623541 -18.862249829261067 C-52.642052882691345 -18.937033576210435, -52.31440387914728 -19.011817323159807, -51.751030759676766 -19.140403561325773 C-51.41707302562675 -19.19439525788607, -51.08311529157674 -19.24838695444637, -50.51704215284788 -19.3399052695533 C-50.25648161860059 -19.365041230922245, -49.9959210843533 -19.39017719229119, -49.2728067896239 -19.45993515863156 C-48.888025275414456 -19.472274352860474, -48.503243761205006 -19.48461354708939, -48.02343750000001 -19.5 C-48.02343750000001 -19.5, -48.0234375 -19.5, -48.0234375 -19.5" stroke="none" stroke-width="0" fill="#F3E5F5" style="fill:#F3E5F5 !important;stroke:#7B1FA2 !important;stroke-width:2px !important"></path><path d="M-48.0234375 -19.5 C-16.526007279551283 -19.5, 14.971422940897433 -19.5, 48.0234375 -19.5 M-48.0234375 -19.5 C-12.859852212885492 -19.5, 22.303733074229015 -19.5, 48.0234375 -19.5 M48.0234375 -19.5 C48.0234375 -19.5, 48.0234375 -19.5, 48.0234375 -19.5 M48.0234375 -19.5 C48.0234375 -19.5, 48.0234375 -19.5, 48.0234375 -19.5 M48.0234375 -19.5 C48.41821568428456 -19.487340232019115, 48.81299386856912 -19.47468046403823, 49.2728067896239 -19.45993515863156 M48.0234375 -19.5 C48.49503757621338 -19.4848767034697, 48.96663765242675 -19.469753406939397, 49.2728067896239 -19.45993515863156 M49.2728067896239 -19.45993515863156 C49.71038856052774 -19.41772217146154, 50.14797033143157 -19.375509184291523, 50.517042152847864 -19.3399052695533 M49.2728067896239 -19.45993515863156 C49.58874114495292 -19.42945735133962, 49.90467550028194 -19.398979544047684, 50.517042152847864 -19.3399052695533 M50.517042152847864 -19.3399052695533 C50.78262859318999 -19.29696731353239, 51.04821503353211 -19.25402935751148, 51.75103075967676 -19.140403561325776 M50.517042152847864 -19.3399052695533 C50.80680994583323 -19.293057859966222, 51.096577738818596 -19.246210450379145, 51.75103075967676 -19.140403561325776 M51.75103075967676 -19.140403561325776 C52.00101972110084 -19.083345212211157, 52.251008682524926 -19.02628686309654, 52.96970188623539 -18.862249829261074 M51.75103075967676 -19.140403561325776 C52.153724409913664 -19.048491363480853, 52.55641806015057 -18.95657916563593, 52.96970188623539 -18.862249829261074 M52.96970188623539 -18.862249829261074 C53.267493682095186 -18.773866787390922, 53.56528547795498 -18.68548374552077, 54.168047751460605 -18.50658706670804 M52.96970188623539 -18.862249829261074 C53.32347333479762 -18.757252320312034, 53.677244783359846 -18.652254811362994, 54.168047751460605 -18.50658706670804 M54.168047751460605 -18.50658706670804 C54.58300323834223 -18.35387961172913, 54.99795872522385 -18.201172156750218, 55.3411440951478 -18.074876768247425 M54.168047751460605 -18.50658706670804 C54.55513237618762 -18.36413634663745, 54.94221700091464 -18.22168562656686, 55.3411440951478 -18.074876768247425 M55.3411440951478 -18.074876768247425 C55.750020252778214 -17.893879422144717, 56.15889641040862 -17.712882076042007, 56.48417041279238 -17.568892924097174 M55.3411440951478 -18.074876768247425 C55.72148733032143 -17.906510100517263, 56.101830565495064 -17.738143432787098, 56.48417041279238 -17.568892924097174 M56.48417041279238 -17.568892924097174 C56.920302133621114 -17.341363284696524, 57.35643385444985 -17.113833645295877, 57.59242976407678 -16.990714730406097 M56.48417041279238 -17.568892924097174 C56.77565721737106 -17.416824444854687, 57.06714402194974 -17.2647559656122, 57.59242976407678 -16.990714730406097 M57.59242976407678 -16.990714730406097 C58.014922388603885 -16.734597218575516, 58.43741501313099 -16.478479706744935, 58.6613680736057 -16.342718045390892 M57.59242976407678 -16.990714730406097 C57.80863458193881 -16.859650099257596, 58.02483939980084 -16.728585468109095, 58.6613680736057 -16.342718045390892 M58.6613680736057 -16.342718045390892 C59.00568154699976 -16.102539871441234, 59.34999502039382 -15.862361697491574, 59.68659284457871 -15.627565626425154 M58.6613680736057 -16.342718045390892 C58.99070739883153 -16.11298518898296, 59.32004672405736 -15.883252332575028, 59.68659284457871 -15.627565626425154 M59.68659284457871 -15.627565626425154 C59.94159761286968 -15.424206109674985, 60.196602381160645 -15.220846592924815, 60.663891208501866 -14.848196188198123 M59.68659284457871 -15.627565626425154 C60.00820537997121 -15.371088187918636, 60.329817915363705 -15.114610749412115, 60.663891208501866 -14.848196188198123 M60.663891208501866 -14.848196188198123 C61.0155255238234 -14.528851206757261, 61.36715983914494 -14.2095062253164, 61.58924723676799 -14.007812326905688 M60.663891208501866 -14.848196188198123 C60.93152675595841 -14.605136665246642, 61.199162303414944 -14.36207714229516, 61.58924723676799 -14.007812326905688 M61.58924723676799 -14.007812326905688 C61.79104339852177 -13.799441222121906, 61.992839560275556 -13.591070117338123, 62.45885844296865 -13.10986736009568 M61.58924723676799 -14.007812326905688 C61.805610583927745 -13.784399407202077, 62.0219739310875 -13.560986487498464, 62.45885844296865 -13.10986736009568 M62.45885844296865 -13.10986736009568 C62.64115302971695 -12.895733765645284, 62.823447616465266 -12.681600171194885, 63.26915140812658 -12.158051136245305 M62.45885844296865 -13.10986736009568 C62.759472040604834 -12.75674952291394, 63.06008563824101 -12.4036316857322, 63.26915140812658 -12.158051136245305 M63.26915140812658 -12.158051136245305 C63.51420538525282 -11.82970113177273, 63.759259362379055 -11.501351127300152, 64.01679646464063 -11.156274872382312 M63.26915140812658 -12.158051136245305 C63.50323575233108 -11.84439944053374, 63.73732009653558 -11.530747744822174, 64.01679646464063 -11.156274872382312 M64.01679646464063 -11.156274872382312 C64.2706265460031 -10.766323704489004, 64.52445662736558 -10.376372536595698, 64.69872137860425 -10.108655082055241 M64.01679646464063 -11.156274872382312 C64.15994211216208 -10.9363647178009, 64.30308775968354 -10.716454563219491, 64.69872137860425 -10.108655082055241 M64.69872137860425 -10.108655082055241 C64.89457554064204 -9.760896184972689, 65.09042970267983 -9.413137287890134, 65.3121239742735 -9.019496659696287 M64.69872137860425 -10.108655082055241 C64.86711821590274 -9.809649445402949, 65.03551505320122 -9.510643808750656, 65.3121239742735 -9.019496659696287 M65.3121239742735 -9.019496659696287 C65.5136871794086 -8.600946351471533, 65.71525038454372 -8.18239604324678, 65.85448364880834 -7.893275190886684 M65.3121239742735 -9.019496659696287 C65.46154750621264 -8.70921549847327, 65.61097103815176 -8.398934337250253, 65.85448364880834 -7.893275190886684 M65.85448364880834 -7.893275190886684 C65.94854827031061 -7.6609337571603415, 66.04261289181288 -7.428592323434, 66.32357172997033 -6.734618561215508 M65.85448364880834 -7.893275190886684 C66.01832677730512 -7.488579495808258, 66.18216990580189 -7.083883800729832, 66.32357172997033 -6.734618561215508 M66.32357172997033 -6.734618561215508 C66.45889364382263 -6.327050517311348, 66.59421555767494 -5.919482473407189, 66.71746063421489 -5.548287939305138 M66.32357172997033 -6.734618561215508 C66.41095223292336 -6.47144240851345, 66.49833273587639 -6.2082662558113935, 66.71746063421489 -5.548287939305138 M66.71746063421489 -5.548287939305138 C66.8332004910525 -5.106921703212049, 66.94894034789012 -4.66555546711896, 67.03453178754556 -4.339158212148133 M66.71746063421489 -5.548287939305138 C66.84360198400016 -5.067256302567069, 66.96974333378543 -4.586224665829, 67.03453178754556 -4.339158212148133 M67.03453178754556 -4.339158212148133 C67.08461249731099 -4.082004352064455, 67.1346932070764 -3.8248504919807766, 67.27348227658177 -3.1121979531509023 M67.03453178754556 -4.339158212148133 C67.11180523274898 -3.9423754027769724, 67.18907867795241 -3.5455925934058117, 67.27348227658177 -3.1121979531509023 M67.27348227658177 -3.1121979531509023 C67.32803294707885 -2.6891137250239026, 67.38258361757593 -2.266029496896903, 67.43333020250937 -1.872449005199798 M67.27348227658177 -3.1121979531509023 C67.30848597407228 -2.8407161876764007, 67.34348967156279 -2.569234422201899, 67.43333020250937 -1.872449005199798 M67.43333020250937 -1.872449005199798 C67.45797864503383 -1.4885296170164923, 67.4826270875583 -1.1046102288331867, 67.51341871591342 -0.6250057626472757 M67.43333020250937 -1.872449005199798 C67.46416516315915 -1.3921696035472428, 67.49500012380892 -0.911890201894688, 67.51341871591342 -0.6250057626472757 M67.51341871591342 -0.6250057626472757 C67.51341871591342 -0.32945220386033297, 67.51341871591342 -0.03389864507339024, 67.51341871591342 0.625005762647271 M67.51341871591342 -0.6250057626472757 C67.51341871591342 -0.25254642865241156, 67.51341871591342 0.11991290534245258, 67.51341871591342 0.625005762647271 M67.51341871591342 0.625005762647271 C67.48407602391106 1.082041875578633, 67.4547333319087 1.539077988509995, 67.43333020250937 1.8724490051997846 M67.51341871591342 0.625005762647271 C67.49406684925346 0.926426706421833, 67.47471498259348 1.227847650196395, 67.43333020250937 1.8724490051997846 M67.43333020250937 1.8724490051997846 C67.39325829327286 2.1832388201446173, 67.35318638403635 2.49402863508945, 67.27348227658177 3.1121979531508885 M67.43333020250937 1.8724490051997846 C67.38875648474564 2.2181539580990846, 67.34418276698192 2.563858910998384, 67.27348227658177 3.1121979531508885 M67.27348227658177 3.1121979531508885 C67.19159003399989 3.5326973108772686, 67.10969779141801 3.953196668603649, 67.03453178754556 4.339158212148129 M67.27348227658177 3.1121979531508885 C67.18475537549972 3.5677918377700713, 67.09602847441766 4.023385722389254, 67.03453178754556 4.339158212148129 M67.03453178754556 4.339158212148129 C66.91216672011939 4.8057892475998285, 66.78980165269321 5.272420283051528, 66.71746063421489 5.548287939305125 M67.03453178754556 4.339158212148129 C66.9160365029412 4.791032088525798, 66.79754121833683 5.242905964903467, 66.71746063421489 5.548287939305125 M66.71746063421489 5.548287939305125 C66.58055317153212 5.9606314036637595, 66.44364570884933 6.372974868022393, 66.32357172997033 6.734618561215495 M66.71746063421489 5.548287939305125 C66.58337798909983 5.95212350322333, 66.44929534398479 6.355959067141534, 66.32357172997033 6.734618561215495 M66.32357172997033 6.734618561215495 C66.22944283796976 6.967118744315213, 66.1353139459692 7.199618927414932, 65.85448364880834 7.893275190886679 M66.32357172997033 6.734618561215495 C66.15001404752655 7.163309392361134, 65.97645636508278 7.592000223506772, 65.85448364880834 7.893275190886679 M65.85448364880834 7.893275190886679 C65.6559886931047 8.30545421351696, 65.45749373740107 8.717633236147243, 65.3121239742735 9.019496659696284 M65.85448364880834 7.893275190886679 C65.69569845568142 8.222996041873591, 65.5369132625545 8.552716892860502, 65.3121239742735 9.019496659696284 M65.3121239742735 9.019496659696284 C65.14318630425191 9.31946259961371, 64.97424863423032 9.619428539531135, 64.69872137860425 10.108655082055236 M65.3121239742735 9.019496659696284 C65.0696965427953 9.4499511127252, 64.82726911131711 9.880405565754119, 64.69872137860425 10.108655082055236 M64.69872137860425 10.108655082055236 C64.47198860927146 10.45697750202384, 64.24525583993868 10.805299921992445, 64.01679646464065 11.156274872382301 M64.69872137860425 10.108655082055236 C64.55497040121529 10.329495185866973, 64.41121942382632 10.550335289678712, 64.01679646464065 11.156274872382301 M64.01679646464065 11.156274872382301 C63.83597828069751 11.398554765990673, 63.655160096754365 11.640834659599042, 63.26915140812658 12.158051136245302 M64.01679646464065 11.156274872382301 C63.84665272394169 11.384251984505255, 63.67650898324273 11.612229096628209, 63.26915140812658 12.158051136245302 M63.26915140812658 12.158051136245302 C62.98595079550914 12.490714690397114, 62.7027501828917 12.823378244548925, 62.45885844296866 13.10986736009567 M63.26915140812658 12.158051136245302 C63.10256716429975 12.353730467956298, 62.93598292047292 12.549409799667295, 62.45885844296866 13.10986736009567 M62.45885844296866 13.10986736009567 C62.191357396681575 13.386084152631426, 61.923856350394495 13.662300945167182, 61.58924723676799 14.007812326905684 M62.45885844296866 13.10986736009567 C62.12982016154692 13.449626400208926, 61.80078188012518 13.789385440322182, 61.58924723676799 14.007812326905684 M61.58924723676799 14.007812326905684 C61.228450280626014 14.335478576309482, 60.86765332448404 14.663144825713282, 60.66389120850189 14.848196188198111 M61.58924723676799 14.007812326905684 C61.398702938961684 14.180859616647519, 61.20815864115538 14.353906906389351, 60.66389120850189 14.848196188198111 M60.66389120850189 14.848196188198111 C60.39362166656414 15.063728955718902, 60.123352124626386 15.279261723239694, 59.68659284457871 15.627565626425152 M60.66389120850189 14.848196188198111 C60.3649191603024 15.08661844065687, 60.06594711210291 15.32504069311563, 59.68659284457871 15.627565626425152 M59.68659284457871 15.627565626425152 C59.42834589753639 15.807707517351721, 59.17009895049406 15.987849408278292, 58.66136807360571 16.34271804539089 M59.68659284457871 15.627565626425152 C59.42536155789591 15.809789263494935, 59.16413027121312 15.992012900564715, 58.66136807360571 16.34271804539089 M58.66136807360571 16.34271804539089 C58.36577445209794 16.521908635849833, 58.07018083059017 16.701099226308777, 57.59242976407678 16.990714730406093 M58.66136807360571 16.34271804539089 C58.42339812862335 16.486976824505817, 58.185428183640994 16.63123560362075, 57.59242976407678 16.990714730406093 M57.59242976407678 16.990714730406093 C57.2234102686107 17.183231964822482, 56.854390773144615 17.375749199238868, 56.48417041279239 17.56889292409717 M57.59242976407678 16.990714730406093 C57.27410505629194 17.15678452656074, 56.95578034850709 17.32285432271539, 56.48417041279239 17.56889292409717 M56.48417041279239 17.56889292409717 C56.101549574127745 17.738267819330098, 55.718928735463095 17.907642714563025, 55.341144095147804 18.07487676824742 M56.48417041279239 17.56889292409717 C56.11358755789308 17.732938961011286, 55.74300470299376 17.8969849979254, 55.341144095147804 18.07487676824742 M55.341144095147804 18.07487676824742 C54.97205380436763 18.210705407087772, 54.602963513587454 18.346534045928124, 54.16804775146062 18.506587066708033 M55.341144095147804 18.07487676824742 C54.95007876624816 18.21879242425076, 54.55901343734852 18.3627080802541, 54.16804775146062 18.506587066708033 M54.16804775146062 18.506587066708033 C53.83854245127754 18.604382510193755, 53.50903715109446 18.70217795367948, 52.96970188623541 18.86224982926107 M54.16804775146062 18.506587066708033 C53.89455917673642 18.587757040115353, 53.62107060201223 18.66892701352267, 52.96970188623541 18.86224982926107 M52.96970188623541 18.86224982926107 C52.501953765723336 18.969010285426208, 52.034205645211266 19.075770741591345, 51.751030759676766 19.140403561325773 M52.96970188623541 18.86224982926107 C52.71566673894376 18.92023169389613, 52.46163159165211 18.97821355853119, 51.751030759676766 19.140403561325773 M51.751030759676766 19.140403561325773 C51.488421955299195 19.182860116255846, 51.22581315092163 19.225316671185915, 50.51704215284788 19.3399052695533 M51.751030759676766 19.140403561325773 C51.33462806280643 19.207724320104624, 50.918225365936095 19.27504507888348, 50.51704215284788 19.3399052695533 M50.51704215284788 19.3399052695533 C50.133088766900535 19.37694479092413, 49.74913538095319 19.413984312294968, 49.2728067896239 19.45993515863156 M50.51704215284788 19.3399052695533 C50.256446667328156 19.36504460262946, 49.99585118180843 19.390183935705625, 49.2728067896239 19.45993515863156 M49.2728067896239 19.45993515863156 C48.802150662289705 19.47502818455859, 48.33149453495551 19.49012121048562, 48.02343750000001 19.5 M49.2728067896239 19.45993515863156 C48.923658844879185 19.471131653644274, 48.57451090013446 19.48232814865699, 48.02343750000001 19.5 M48.02343750000001 19.5 C48.02343750000001 19.5, 48.0234375 19.5, 48.0234375 19.5 M48.02343750000001 19.5 C48.02343750000001 19.5, 48.02343750000001 19.5, 48.0234375 19.5 M48.0234375 19.5 C13.830851561669995 19.5, -20.36173437666001 19.5, -48.02343749999999 19.5 M48.0234375 19.5 C28.647734474515286 19.5, 9.272031449030571 19.5, -48.02343749999999 19.5 M-48.02343749999999 19.5 C-48.385548516985935 19.488387804491598, -48.74765953397188 19.476775608983196, -49.27280678962389 19.45993515863156 M-48.02343749999999 19.5 C-48.42152311585325 19.487234169126232, -48.8196087317065 19.474468338252464, -49.27280678962389 19.45993515863156 M-49.27280678962389 19.45993515863156 C-49.621602210892135 19.42628728382968, -49.970397632160385 19.392639409027797, -50.51704215284787 19.3399052695533 M-49.27280678962389 19.45993515863156 C-49.73131887878042 19.415703048832093, -50.189830967936956 19.37147093903263, -50.51704215284787 19.3399052695533 M-50.51704215284787 19.3399052695533 C-50.907912406560854 19.27671239817707, -51.298782660273844 19.213519526800845, -51.75103075967676 19.140403561325773 M-50.51704215284787 19.3399052695533 C-50.87380387756395 19.282226800629697, -51.23056560228003 19.2245483317061, -51.75103075967676 19.140403561325773 M-51.75103075967676 19.140403561325773 C-52.19555328133417 19.038944196538015, -52.64007580299158 18.937484831750258, -52.969701886235384 18.862249829261074 M-51.75103075967676 19.140403561325773 C-52.15421517144178 19.048379350364577, -52.557399583206795 18.95635513940338, -52.969701886235384 18.862249829261074 M-52.969701886235384 18.862249829261074 C-53.31673159542115 18.759253233170856, -53.663761304606915 18.656256637080638, -54.16804775146059 18.506587066708043 M-52.969701886235384 18.862249829261074 C-53.38477716130841 18.73905766639398, -53.79985243638144 18.615865503526887, -54.16804775146059 18.506587066708043 M-54.16804775146059 18.506587066708043 C-54.43198136903181 18.40945705566622, -54.69591498660303 18.312327044624396, -55.3411440951478 18.074876768247425 M-54.16804775146059 18.506587066708043 C-54.53525264635602 18.37145227098169, -54.90245754125145 18.23631747525533, -55.3411440951478 18.074876768247425 M-55.3411440951478 18.074876768247425 C-55.59442258690606 17.962757893185554, -55.84770107866433 17.85063901812368, -56.48417041279238 17.568892924097174 M-55.3411440951478 18.074876768247425 C-55.70425726645278 17.914137338680227, -56.067370437757766 17.75339790911303, -56.48417041279238 17.568892924097174 M-56.48417041279238 17.568892924097174 C-56.91968968538295 17.34168279855008, -57.355208957973524 17.11447267300299, -57.59242976407678 16.990714730406097 M-56.48417041279238 17.568892924097174 C-56.78350985354293 17.412727729593676, -57.082849294293474 17.25656253509018, -57.59242976407678 16.990714730406097 M-57.59242976407678 16.990714730406097 C-58.01699899675079 16.733338366513355, -58.4415682294248 16.47596200262061, -58.661368073605686 16.3427180453909 M-57.59242976407678 16.990714730406097 C-57.84021615682043 16.84050516297042, -58.08800254956409 16.690295595534742, -58.661368073605686 16.3427180453909 M-58.661368073605686 16.3427180453909 C-59.016344028256704 16.09510218608776, -59.37131998290772 15.84748632678462, -59.68659284457871 15.627565626425156 M-58.661368073605686 16.3427180453909 C-58.932678099675236 16.15346391602652, -59.20398812574478 15.96420978666214, -59.68659284457871 15.627565626425156 M-59.68659284457871 15.627565626425156 C-60.00564781208474 15.373127780248359, -60.324702779590766 15.118689934071561, -60.663891208501866 14.848196188198125 M-59.68659284457871 15.627565626425156 C-60.0755837745785 15.317355711233708, -60.46457470457828 15.00714579604226, -60.663891208501866 14.848196188198125 M-60.663891208501866 14.848196188198125 C-60.93247864444264 14.604272185310847, -61.20106608038342 14.360348182423571, -61.589247236767974 14.007812326905697 M-60.663891208501866 14.848196188198125 C-60.97084534910629 14.569428559262699, -61.277799489710716 14.290660930327274, -61.589247236767974 14.007812326905697 M-61.589247236767974 14.007812326905697 C-61.876521907766374 13.711177643410728, -62.163796578764774 13.41454295991576, -62.458858442968655 13.109867360095677 M-61.589247236767974 14.007812326905697 C-61.79760146662367 13.79266947837929, -62.00595569647936 13.577526629852883, -62.458858442968655 13.109867360095677 M-62.458858442968655 13.109867360095677 C-62.69288154078848 12.834970513105011, -62.9269046386083 12.560073666114345, -63.269151408126575 12.158051136245307 M-62.458858442968655 13.109867360095677 C-62.73971765680816 12.779954146177792, -63.020576870647666 12.450040932259906, -63.269151408126575 12.158051136245307 M-63.269151408126575 12.158051136245307 C-63.52082582431928 11.820830346558072, -63.77250024051199 11.483609556870837, -64.01679646464063 11.156274872382316 M-63.269151408126575 12.158051136245307 C-63.45003626085279 11.915681912541267, -63.63092111357901 11.673312688837228, -64.01679646464063 11.156274872382316 M-64.01679646464063 11.156274872382316 C-64.2485570855993 10.800228322149149, -64.48031770655798 10.44418177191598, -64.69872137860425 10.108655082055249 M-64.01679646464063 11.156274872382316 C-64.28558108501613 10.74334951670901, -64.55436570539162 10.330424161035705, -64.69872137860425 10.108655082055249 M-64.69872137860425 10.108655082055249 C-64.8806297681218 9.785658316244966, -65.06253815763937 9.462661550434683, -65.3121239742735 9.019496659696289 M-64.69872137860425 10.108655082055249 C-64.9265040840687 9.70420382300305, -65.15428678953315 9.299752563950852, -65.3121239742735 9.019496659696289 M-65.3121239742735 9.019496659696289 C-65.47186379182637 8.687793510663225, -65.63160360937921 8.35609036163016, -65.85448364880834 7.893275190886686 M-65.3121239742735 9.019496659696289 C-65.47666649437552 8.677820596058513, -65.64120901447754 8.336144532420738, -65.85448364880834 7.893275190886686 M-65.85448364880834 7.893275190886686 C-65.99411607149386 7.548380407244222, -66.13374849417937 7.203485623601759, -66.32357172997033 6.73461856121551 M-65.85448364880834 7.893275190886686 C-65.9970525324105 7.541127292007482, -66.13962141601267 7.188979393128277, -66.32357172997033 6.73461856121551 M-66.32357172997033 6.73461856121551 C-66.43382636861833 6.402549156298777, -66.54408100726634 6.070479751382043, -66.71746063421489 5.5482879393051325 M-66.32357172997033 6.73461856121551 C-66.4562482219265 6.335018106571769, -66.58892471388266 5.935417651928028, -66.71746063421489 5.5482879393051325 M-66.71746063421489 5.5482879393051325 C-66.81199540591739 5.187785883174273, -66.90653017761989 4.827283827043414, -67.03453178754556 4.339158212148136 M-66.71746063421489 5.5482879393051325 C-66.83619937751493 5.095485649405166, -66.95493812081499 4.642683359505201, -67.03453178754556 4.339158212148136 M-67.03453178754556 4.339158212148136 C-67.11754244066269 3.9129160526994182, -67.20055309377982 3.4866738932507007, -67.27348227658177 3.112197953150904 M-67.03453178754556 4.339158212148136 C-67.10711760632843 3.966445373716304, -67.17970342511131 3.593732535284472, -67.27348227658177 3.112197953150904 M-67.27348227658177 3.112197953150904 C-67.3261874204948 2.7034272647693176, -67.37889256440783 2.2946565763877307, -67.43333020250937 1.872449005199809 M-67.27348227658177 3.112197953150904 C-67.31063304618239 2.824063920377748, -67.34778381578302 2.535929887604592, -67.43333020250937 1.872449005199809 M-67.43333020250937 1.872449005199809 C-67.4653224513063 1.3741439065090182, -67.49731470010325 0.8758388078182272, -67.51341871591342 0.6250057626472781 M-67.43333020250937 1.872449005199809 C-67.45772295321213 1.4925122235304333, -67.48211570391487 1.1125754418610578, -67.51341871591342 0.6250057626472781 M-67.51341871591342 0.6250057626472781 C-67.51341871591342 0.24529832498125603, -67.51341871591342 -0.13440911268476607, -67.51341871591342 -0.6250057626472687 M-67.51341871591342 0.6250057626472781 C-67.51341871591342 0.20363491065390749, -67.51341871591342 -0.21773594133946317, -67.51341871591342 -0.6250057626472687 M-67.51341871591342 -0.6250057626472687 C-67.49389049723379 -0.9291735314768064, -67.47436227855417 -1.233341300306344, -67.43333020250937 -1.8724490051997822 M-67.51341871591342 -0.6250057626472687 C-67.48715823572164 -1.034033938712292, -67.46089775552986 -1.4430621147773155, -67.43333020250937 -1.8724490051997822 M-67.43333020250937 -1.8724490051997822 C-67.38502594017537 -2.2470873251067607, -67.33672167784137 -2.621725645013739, -67.27348227658177 -3.112197953150895 M-67.43333020250937 -1.8724490051997822 C-67.37124573333953 -2.3539638881158904, -67.30916126416969 -2.8354787710319984, -67.27348227658177 -3.112197953150895 M-67.27348227658177 -3.112197953150895 C-67.20597060263955 -3.4588561302468963, -67.13845892869732 -3.805514307342897, -67.03453178754556 -4.339158212148126 M-67.27348227658177 -3.112197953150895 C-67.20459405362227 -3.46592441851683, -67.13570583066279 -3.8196508838827645, -67.03453178754556 -4.339158212148126 M-67.03453178754556 -4.339158212148126 C-66.92580622971602 -4.753775886107006, -66.81708067188649 -5.168393560065885, -66.71746063421489 -5.548287939305123 M-67.03453178754556 -4.339158212148126 C-66.95948011301556 -4.6253627747325154, -66.88442843848556 -4.911567337316904, -66.71746063421489 -5.548287939305123 M-66.71746063421489 -5.548287939305123 C-66.5950026058449 -5.917112009718372, -66.47254457747489 -6.285936080131622, -66.32357172997033 -6.734618561215485 M-66.71746063421489 -5.548287939305123 C-66.5901152143129 -5.931832054312631, -66.46276979441092 -6.31537616932014, -66.32357172997033 -6.734618561215485 M-66.32357172997033 -6.734618561215485 C-66.19999896416489 -7.039845681871797, -66.07642619835947 -7.345072802528108, -65.85448364880834 -7.893275190886676 M-66.32357172997033 -6.734618561215485 C-66.17356558075402 -7.105136649951378, -66.0235594315377 -7.47565473868727, -65.85448364880834 -7.893275190886676 M-65.85448364880834 -7.893275190886676 C-65.69748477502965 -8.219286711525882, -65.54048590125096 -8.54529823216509, -65.3121239742735 -9.019496659696282 M-65.85448364880834 -7.893275190886676 C-65.63988895100249 -8.338885672471509, -65.42529425319664 -8.784496154056342, -65.3121239742735 -9.019496659696282 M-65.3121239742735 -9.019496659696282 C-65.17154000202375 -9.26911773809658, -65.03095602977399 -9.51873881649688, -64.69872137860425 -10.108655082055243 M-65.3121239742735 -9.019496659696282 C-65.1382602054026 -9.328209386942241, -64.96439643653171 -9.636922114188202, -64.69872137860425 -10.108655082055243 M-64.69872137860425 -10.108655082055243 C-64.55631580915824 -10.327428277974002, -64.41391023971221 -10.546201473892763, -64.01679646464063 -11.156274872382308 M-64.69872137860425 -10.108655082055243 C-64.48887945943225 -10.431028620348537, -64.27903754026025 -10.75340215864183, -64.01679646464063 -11.156274872382308 M-64.01679646464063 -11.156274872382308 C-63.73237354065145 -11.537375679066397, -63.44795061666227 -11.918476485750485, -63.26915140812659 -12.158051136245302 M-64.01679646464063 -11.156274872382308 C-63.867092118759025 -11.356865057517187, -63.71738777287742 -11.557455242652065, -63.26915140812659 -12.158051136245302 M-63.26915140812659 -12.158051136245302 C-62.982581922914456 -12.494671959841117, -62.69601243770232 -12.831292783436933, -62.45885844296866 -13.10986736009567 M-63.26915140812659 -12.158051136245302 C-62.952867394092834 -12.529576336199584, -62.63658338005908 -12.901101536153867, -62.45885844296866 -13.10986736009567 M-62.45885844296866 -13.10986736009567 C-62.11344348500554 -13.46653666328805, -61.76802852704242 -13.82320596648043, -61.589247236767996 -14.007812326905677 M-62.45885844296866 -13.10986736009567 C-62.142746899098206 -13.436278482382331, -61.82663535522775 -13.76268960466899, -61.589247236767996 -14.007812326905677 M-61.589247236767996 -14.007812326905677 C-61.388304429905986 -14.190303267442431, -61.18736162304397 -14.372794207979183, -60.66389120850189 -14.848196188198107 M-61.589247236767996 -14.007812326905677 C-61.37621684840128 -14.201280889145123, -61.16318646003456 -14.394749451384568, -60.66389120850189 -14.848196188198107 M-60.66389120850189 -14.848196188198107 C-60.339960296859665 -15.106522470069198, -60.01602938521744 -15.364848751940288, -59.68659284457872 -15.627565626425149 M-60.66389120850189 -14.848196188198107 C-60.367076779924574 -15.084897796424855, -60.07026235134726 -15.3215994046516, -59.68659284457872 -15.627565626425149 M-59.68659284457872 -15.627565626425149 C-59.377246454225435 -15.843352276946195, -59.067900063872145 -16.05913892746724, -58.661368073605715 -16.342718045390885 M-59.68659284457872 -15.627565626425149 C-59.46468884770309 -15.782356248576386, -59.24278485082746 -15.937146870727625, -58.661368073605715 -16.342718045390885 M-58.661368073605715 -16.342718045390885 C-58.31269227769025 -16.55408736192125, -57.9640164817748 -16.76545667845162, -57.59242976407679 -16.99071473040609 M-58.661368073605715 -16.342718045390885 C-58.38068612222598 -16.51286909378751, -58.100004170846255 -16.683020142184137, -57.59242976407679 -16.99071473040609 M-57.59242976407679 -16.99071473040609 C-57.284043908243426 -17.15159943386379, -56.975658052410054 -17.31248413732149, -56.48417041279239 -17.56889292409717 M-57.59242976407679 -16.99071473040609 C-57.236319290535114 -17.176497336353137, -56.88020881699344 -17.362279942300187, -56.48417041279239 -17.56889292409717 M-56.48417041279239 -17.56889292409717 C-56.07881220967556 -17.748332976093124, -55.67345400655874 -17.92777302808908, -55.341144095147804 -18.07487676824742 M-56.48417041279239 -17.56889292409717 C-56.06882430178884 -17.75275432663382, -55.653478190785286 -17.936615729170466, -55.341144095147804 -18.07487676824742 M-55.341144095147804 -18.07487676824742 C-55.011554656980906 -18.196168728184208, -54.68196521881401 -18.317460688120995, -54.16804775146062 -18.506587066708033 M-55.341144095147804 -18.07487676824742 C-55.004849477129845 -18.198636296351403, -54.66855485911188 -18.322395824455384, -54.16804775146062 -18.506587066708033 M-54.16804775146062 -18.506587066708033 C-53.82534684486645 -18.608298896911414, -53.482645938272285 -18.710010727114796, -52.96970188623541 -18.862249829261067 M-54.16804775146062 -18.506587066708033 C-53.84242746433561 -18.60322945871097, -53.51680717721059 -18.69987185071391, -52.96970188623541 -18.862249829261067 M-52.96970188623541 -18.862249829261067 C-52.61984566544588 -18.94210222863108, -52.269989444656346 -19.02195462800109, -51.751030759676766 -19.140403561325773 M-52.96970188623541 -18.862249829261067 C-52.507785866097755 -18.967679146573758, -52.04586984596009 -19.07310846388645, -51.751030759676766 -19.140403561325773 M-51.751030759676766 -19.140403561325773 C-51.41058877149336 -19.195443581808217, -51.07014678330995 -19.25048360229066, -50.51704215284788 -19.3399052695533 M-51.751030759676766 -19.140403561325773 C-51.460553699787845 -19.18736563968537, -51.170076639898916 -19.23432771804497, -50.51704215284788 -19.3399052695533 M-50.51704215284788 -19.3399052695533 C-50.15567612870416 -19.374765815296215, -49.79431010456044 -19.40962636103913, -49.2728067896239 -19.45993515863156 M-50.51704215284788 -19.3399052695533 C-50.10997819019488 -19.37917424046439, -49.70291422754189 -19.418443211375486, -49.2728067896239 -19.45993515863156 M-49.2728067896239 -19.45993515863156 C-48.8246222280229 -19.474307565183775, -48.37643766642191 -19.48867997173599, -48.02343750000001 -19.5 M-49.2728067896239 -19.45993515863156 C-48.8707661748856 -19.47282781862163, -48.468725560147305 -19.485720478611707, -48.02343750000001 -19.5 M-48.02343750000001 -19.5 C-48.02343750000001 -19.5, -48.0234375 -19.5, -48.0234375 -19.5 M-48.02343750000001 -19.5 C-48.02343750000001 -19.5, -48.0234375 -19.5, -48.0234375 -19.5" stroke="#7B1FA2" stroke-width="2" fill="none" stroke-dasharray="0 0" style="fill:#F3E5F5 !important;stroke:#7B1FA2 !important;stroke-width:2px !important"></path></g><g class="label" style="color:#4A148C !important" transform="translate(-55.1484375, -12)"><rect></rect><foreignObject width="110.296875" height="24"><div style="color: rgb(74, 20, 140) !important; display: table-cell; white-space: nowrap; line-height: 1.5; max-width: 200px; text-align: center;" xmlns="http://www.w3.org/1999/xhtml"><span style="color:#4A148C !important" class="nodeLabel"><p>npm run deploy</p></span></div></foreignObject></g></g><g class="node default process" id="flowchart-detect-1" transform="translate(138, 148)"><rect class="basic label-container" style="fill:#E1F5FE !important;stroke:#0277BD !important;stroke-width:2px !important" x="-130" y="-51" width="260" height="102"></rect><g class="label" style="color:#01579B !important" transform="translate(-100, -36)"><rect></rect><foreignObject width="200" height="72"><div style="color: rgb(1, 87, 155) !important; display: table; white-space: break-spaces; line-height: 1.5; max-width: 200px; text-align: center; width: 200px;" xmlns="http://www.w3.org/1999/xhtml"><span style="color:#01579B !important" class="nodeLabel"><p>Detect changes<br/>compare fork HEADs to state</p></span></div></foreignObject></g></g><g class="node default process" id="flowchart-bump-2" transform="translate(138, 288)"><rect class="basic label-container" style="fill:#E1F5FE !important;stroke:#0277BD !important;stroke-width:2px !important" x="-121.1328125" y="-39" width="242.265625" height="78"></rect><g class="label" style="color:#01579B !important" transform="translate(-91.1328125, -24)"><rect></rect><foreignObject width="182.265625" height="48"><div style="color: rgb(1, 87, 155) !important; display: table-cell; white-space: nowrap; line-height: 1.5; max-width: 200px; text-align: center;" xmlns="http://www.w3.org/1999/xhtml"><span style="color:#01579B !important" class="nodeLabel"><p>Bump versions<br/>fork-version.mjs: -patch.N</p></span></div></foreignObject></g></g><g class="node default build" id="flowchart-copy-3" transform="translate(138, 416)"><rect class="basic label-container" style="fill:#E3F2FD !important;stroke:#1565C0 !important;stroke-width:2px !important" x="-123.8125" y="-39" width="247.625" height="78"></rect><g class="label" style="color:#0D47A1 !important" transform="translate(-93.8125, -24)"><rect></rect><foreignObject width="187.625" height="48"><div style="color: rgb(13, 71, 161) !important; display: table-cell; white-space: nowrap; line-height: 1.5; max-width: 200px; text-align: center;" xmlns="http://www.w3.org/1999/xhtml"><span style="color:#0D47A1 !important" class="nodeLabel"><p>Copy + codemod<br/>rsync forks, rename scope</p></span></div></foreignObject></g></g><g class="node default build" id="flowchart-tsc-4" transform="translate(138, 544)"><rect class="basic label-container" style="fill:#E3F2FD !important;stroke:#1565C0 !important;stroke-width:2px !important" x="-114.9375" y="-39" width="229.875" height="78"></rect><g class="label" style="color:#0D47A1 !important" transform="translate(-84.9375, -24)"><rect></rect><foreignObject width="169.875" height="48"><div style="color: rgb(13, 71, 161) !important; display: table-cell; white-space: nowrap; line-height: 1.5; max-width: 200px; text-align: center;" xmlns="http://www.w3.org/1999/xhtml"><span style="color:#0D47A1 !important" class="nodeLabel"><p>Build<br/>tsc for 20 sub-packages</p></span></div></foreignObject></g></g><g class="node default test" id="flowchart-pretest-5" transform="translate(138, 684)"><rect class="basic label-container" style="fill:#E8F5E9 !important;stroke:#2E7D32 !important;stroke-width:2px !important" x="-88.4765625" y="-51" width="176.953125" height="102"></rect><g class="label" style="color:#1B5E20 !important" transform="translate(-58.4765625, -36)"><rect></rect><foreignObject width="116.953125" height="72"><div style="color: rgb(27, 94, 32) !important; display: table-cell; white-space: nowrap; line-height: 1.5; max-width: 200px; text-align: center;" xmlns="http://www.w3.org/1999/xhtml"><span style="color:#1B5E20 !important" class="nodeLabel"><p>Test L0-L3<br/>preflight + unit +<br/>integration + RQ</p></span></div></foreignObject></g></g><g class="node default gate" id="flowchart-gate1-6" transform="translate(138, 855.578125)"><polygon points="70.578125,0 141.15625,-70.578125 70.578125,-141.15625 0,-70.578125" class="label-container" transform="translate(-70.078125, 70.578125)" style="fill:#FFF8E1 !important;stroke:#F57F17 !important;stroke-width:2px !important"></polygon><g class="label" style="color:#E65100 !important" transform="translate(-31.578125, -24)"><rect></rect><foreignObject width="63.15625" height="48"><div style="color: rgb(230, 81, 0) !important; display: table-cell; white-space: nowrap; line-height: 1.5; max-width: 200px; text-align: center;" xmlns="http://www.w3.org/1999/xhtml"><span style="color:#E65100 !important" class="nodeLabel"><p>Gate 1<br/>all pass?</p></span></div></foreignObject></g></g><g class="node default publish" id="flowchart-npm-7" transform="translate(138, 1051.15625)"><rect class="basic label-container" style="fill:#E0F2F1 !important;stroke:#00695C !important;stroke-width:2px !important" x="-130" y="-51" width="260" height="102"></rect><g class="label" style="color:#004D40 !important" transform="translate(-100, -36)"><rect></rect><foreignObject width="200" height="72"><div style="color: rgb(0, 77, 64) !important; display: table; white-space: break-spaces; line-height: 1.5; max-width: 200px; text-align: center; width: 200px;" xmlns="http://www.w3.org/1999/xhtml"><span style="color:#004D40 !important" class="nodeLabel"><p>Publish to npm<br/>44 packages, --tag prerelease</p></span></div></foreignObject></g></g><g class="node default process" id="flowchart-cdn-8" transform="translate(138, 1191.15625)"><rect class="basic label-container" style="fill:#E1F5FE !important;stroke:#0277BD !important;stroke-width:2px !important" x="-119.375" y="-39" width="238.75" height="78"></rect><g class="label" style="color:#01579B !important" transform="translate(-89.375, -24)"><rect></rect><foreignObject width="178.75" height="48"><div style="color: rgb(1, 87, 155) !important; display: table-cell; white-space: nowrap; line-height: 1.5; max-width: 200px; text-align: center;" xmlns="http://www.w3.org/1999/xhtml"><span style="color:#01579B !important" class="nodeLabel"><p>CDN propagation<br/>poll until version resolves</p></span></div></foreignObject></g></g><g class="node default test" id="flowchart-accept-9" transform="translate(138, 1319.15625)"><rect class="basic label-container" style="fill:#E8F5E9 !important;stroke:#2E7D32 !important;stroke-width:2px !important" x="-108.2578125" y="-39" width="216.515625" height="78"></rect><g class="label" style="color:#1B5E20 !important" transform="translate(-78.2578125, -24)"><rect></rect><foreignObject width="156.515625" height="48"><div style="color: rgb(27, 94, 32) !important; display: table-cell; white-space: nowrap; line-height: 1.5; max-width: 200px; text-align: center;" xmlns="http://www.w3.org/1999/xhtml"><span style="color:#1B5E20 !important" class="nodeLabel"><p>Acceptance L4<br/>16 checks vs live npm</p></span></div></foreignObject></g></g><g class="node default gate" id="flowchart-gate2-10" transform="translate(138, 1471.171875)"><polygon points="63.015625,0 126.03125,-63.015625 63.015625,-126.03125 0,-63.015625" class="label-container" transform="translate(-62.515625, 63.015625)" style="fill:#FFF8E1 !important;stroke:#F57F17 !important;stroke-width:2px !important"></polygon><g class="label" style="color:#E65100 !important" transform="translate(-24.015625, -24)"><rect></rect><foreignObject width="48.03125" height="48"><div style="color: rgb(230, 81, 0) !important; display: table-cell; white-space: nowrap; line-height: 1.5; max-width: 200px; text-align: center;" xmlns="http://www.w3.org/1999/xhtml"><span style="color:#E65100 !important" class="nodeLabel"><p>Gate 2<br/>pass?</p></span></div></foreignObject></g></g><g class="node default publish" id="flowchart-promote-11" transform="translate(138, 1647.1875)"><rect class="basic label-container" style="fill:#E0F2F1 !important;stroke:#00695C !important;stroke-width:2px !important" x="-98.59375" y="-39" width="197.1875" height="78"></rect><g class="label" style="color:#004D40 !important" transform="translate(-68.59375, -24)"><rect></rect><foreignObject width="137.1875" height="48"><div style="color: rgb(0, 77, 64) !important; display: table-cell; white-space: nowrap; line-height: 1.5; max-width: 200px; text-align: center;" xmlns="http://www.w3.org/1999/xhtml"><span style="color:#004D40 !important" class="nodeLabel"><p>Promote to @latest<br/>npm dist-tag add</p></span></div></foreignObject></g></g><g class="node default ok" id="flowchart-smoke-12" transform="translate(138, 1763.1875)"><rect class="basic label-container" style="fill:#C8E6C9 !important;stroke:#2E7D32 !important;stroke-width:2px !important" x="-118.921875" y="-27" width="237.84375" height="54"></rect><g class="label" style="color:#1B5E20 !important" transform="translate(-88.921875, -12)"><rect></rect><foreignObject width="177.84375" height="24"><div style="color: rgb(27, 94, 32) !important; display: table-cell; white-space: nowrap; line-height: 1.5; max-width: 200px; text-align: center;" xmlns="http://www.w3.org/1999/xhtml"><span style="color:#1B5E20 !important" class="nodeLabel"><p>Post-promote smoke test</p></span></div></foreignObject></g></g></g></g></g></svg>